<svg width="334" height="512" viewBox="0 0 334 512" fill="none" xmlns="http://www.w3.org/2000/svg">
<path fill-rule="evenodd" clip-rule="evenodd" d="M131.721 56.009C124.302 50.9319 118.313 43.8763 116.531 34.6463C111.398 8.05211 149.499 3.97183 160.132 15.2339C170.766 26.496 178.852 60.1364 170.289 64.9599C166.874 66.8835 158.449 66.6813 149.228 64.0562L163.591 97.7853L134.133 105.698L131.721 56.009Z" fill="#B28B67"/>
<path fill-rule="evenodd" clip-rule="evenodd" d="M141.947 30.9088C147.246 46.2128 152.315 53.2151 157.153 51.9155C164.411 49.9661 169.344 43.7343 172.529 42.879C174.85 42.2554 175.104 45.281 174.137 47.8343C173.339 49.9409 167.612 53.3033 168.343 56.0405C169.075 58.7777 173.394 55.3481 173.828 56.9715C174.545 59.6568 176.753 64.475 172.063 65.735C167.315 67.0101 153.245 68.9472 149.041 62.5734C146.328 58.4599 142.853 49.3595 138.614 35.2722C138.317 35.3155 138.019 35.3768 137.722 35.4566C133.655 36.5491 131.233 40.7109 132.314 44.7521C132.862 46.8037 134.207 48.4298 135.931 49.3908C134.866 52.2384 133.624 55.2479 132.124 58.4118C122.592 55.7193 112.657 43.0114 117.011 27.0706C117.428 19.7223 121.494 14.7651 126.986 11.4951C131.263 8.20287 136.198 6.63571 140.735 6.70201C149.188 5.18627 157.238 5.70796 159.728 6.63328C161.806 14.4082 160.906 17.1223 147.901 20.3976C145.165 22.9222 143.487 26.4547 141.947 30.9088Z" fill="#191847"/>
<path fill-rule="evenodd" clip-rule="evenodd" d="M148.475 208.528L210.845 366.164L252.677 499.432H269.195L205.244 208.528L148.475 208.528Z" fill="#997659"/>
<path fill-rule="evenodd" clip-rule="evenodd" d="M135.916 208.528C135.252 263.922 125.566 338.502 124.019 341.955C122.987 344.257 87.3736 373.531 17.1779 429.777L28.5551 441.934C111.38 393.71 154.708 366.383 158.541 359.951C164.29 350.303 183.007 261.523 198.034 208.528H135.916Z" fill="#B28B67"/>
<path fill-rule="evenodd" clip-rule="evenodd" d="M15.581 425.694C11.7601 427.047 9.12793 428.331 7.68464 429.545C5.92925 431.022 3.61308 433.47 0.736142 436.889C2.44486 438.93 17.8014 457.276 46.8058 491.927C52.7198 489.39 54.5751 486.422 52.3719 483.024C50.1686 479.626 48.3655 476.781 46.9625 474.488L36.9261 439.337C36.733 438.661 36.0295 438.269 35.3548 438.463C35.3432 438.466 35.3317 438.47 35.3203 438.473L29.9649 440.176C26.2493 438.44 23.6451 436.681 22.1522 434.897C20.9393 433.448 19.848 430.956 18.8784 427.42L18.8784 427.42C18.5064 426.064 17.1076 425.266 15.7542 425.639C15.6958 425.655 15.6381 425.673 15.581 425.694Z" fill="#E4E4E4"/>
<path fill-rule="evenodd" clip-rule="evenodd" d="M245.913 493.404C244.491 497.209 243.78 500.055 243.78 501.944C243.78 504.241 244.162 507.593 244.926 512C247.584 512 271.474 512 316.597 512C318.46 505.828 317.385 502.495 313.372 502.003C309.359 501.511 306.026 501.067 303.371 500.67L270.059 485.783C269.418 485.496 268.667 485.785 268.381 486.428C268.376 486.438 268.371 486.45 268.367 486.461L266.226 491.668C262.511 493.405 259.492 494.274 257.17 494.274C255.283 494.274 252.677 493.51 249.352 491.982L249.352 491.982C248.076 491.396 246.567 491.957 245.983 493.236C245.957 493.291 245.934 493.347 245.913 493.404Z" fill="#E4E4E4"/>
<path fill-rule="evenodd" clip-rule="evenodd" d="M190.41 485.705L268.947 477.194L210.741 208.528H140.399L190.41 485.705Z" fill="#69A1AC"/>
<path fill-rule="evenodd" clip-rule="evenodd" d="M33.4231 410.162L84.9387 471.053C139.199 411.875 170.833 373.261 179.84 355.212C188.848 337.162 196.945 288.268 204.132 208.528H124.939C121.013 278.68 118.367 315.388 117 318.652C115.633 321.917 87.7743 352.42 33.4231 410.162Z" fill="#89C5CC"/>
<path fill-rule="evenodd" clip-rule="evenodd" d="M245.75 179.299L290.811 201.484C302.151 202.484 311.834 204.511 319.861 207.564C321.851 208.821 324.48 211.613 317.268 212.325C310.056 213.037 302.501 214.109 301.945 216.704C301.389 219.299 306.205 221.433 304.794 225.051C303.854 227.462 296.642 223.106 283.158 211.983L240.753 202.619L245.75 179.299ZM92.6607 207.4L118.83 202.88C111.829 257.731 107.965 286.861 107.237 290.271C105.601 297.941 113.646 307.76 117.297 313.156C109.432 318.474 107.86 304.205 97.9726 311.104C88.9477 317.402 82.9257 326.987 70.3428 322.005C68.7958 321.393 66.6971 318.428 69.9483 315.247C78.0482 307.322 89.3783 293.954 90.5329 290.009C92.1075 284.629 92.8168 257.093 92.6607 207.4Z" fill="#B28B67"/>
<path fill-rule="evenodd" clip-rule="evenodd" d="M147.725 84.8009L158.221 81.0366C204.457 108.537 232.639 172.089 288.046 198.6L278.777 215.34C191.545 219.886 156.123 142.554 147.725 84.8009Z" fill="#E87613"/>
<path fill-rule="evenodd" clip-rule="evenodd" d="M124.413 228.791C167.803 221.122 199.719 215.481 220.162 211.867C224.537 211.094 222.604 204.937 221.412 201.869C207.658 166.458 172.205 131.933 163.015 79.6896L134.637 80.2513C118.239 120.938 118.276 167.456 124.413 228.791Z" fill="#DDE3E9"/>
<path fill-rule="evenodd" clip-rule="evenodd" d="M106.488 122.371C102.274 121.93 98.626 119.809 95.5429 116.008C82.2524 99.6226 84.1385 88.9746 94.348 83.7795C104.557 78.5844 115.369 83.6571 132.557 80.6189C133.492 80.4537 134.359 80.3608 135.157 80.3403L143.89 79.3041C183.447 158.782 200.13 213.525 193.939 243.532L118.577 256.853C115.939 268.028 113.203 277.521 110.37 285.333L89.8355 288.963C76.939 226.972 82.4898 171.442 106.488 122.371Z" fill="#FF9B21"/>
<path fill-rule="evenodd" clip-rule="evenodd" d="M127.412 210.882C133.262 230.245 139.639 243.92 146.544 251.909L118.577 256.853C121.655 243.817 124.6 228.494 127.412 210.882V210.882Z" fill="black" fill-opacity="0.1"/>
</svg>
