<svg width="234" height="511" viewBox="0 0 234 511" fill="none" xmlns="http://www.w3.org/2000/svg">
<path d="M77.5385 32.1581L103.247 8.48141C107.572 4.49938 114.586 4.49805 118.913 8.47843C118.914 8.47943 118.915 8.48042 118.916 8.48141L187.361 71.5057C191.513 75.3292 193.846 80.5139 193.846 85.92V503.354" stroke="#CBCBCB" stroke-width="8"/>
<path d="M229.846 502.08H156.462C154.167 502.08 152.308 503.791 152.308 505.903V507.177C152.308 509.288 154.167 511 156.462 511H229.846C232.14 511 234 509.288 234 507.177V505.903C234 503.791 232.14 502.08 229.846 502.08Z" fill="#AFB9C5"/>
<path fill-rule="evenodd" clip-rule="evenodd" d="M93.0015 18.2667C110.845 34.6891 110.845 61.3152 93.0015 77.7377L65.5875 102.968L0.968847 43.4968L28.3828 18.2667C46.2268 1.8442 75.1576 1.8442 93.0015 18.2667Z" fill="#C5CFD6"/>
<path d="M28.0079 78.4046C45.8519 94.8271 63.1665 105.518 66.6812 102.283C70.196 99.0484 58.5798 83.1131 40.7359 66.6906C22.8919 50.2682 5.57729 39.5774 2.06257 42.8121C-1.45215 46.0468 10.164 61.9821 28.0079 78.4046Z" fill="#F2F2F2"/>
</svg>
