<svg width="365" height="504" viewBox="0 0 365 504" fill="none" xmlns="http://www.w3.org/2000/svg">
<path fill-rule="evenodd" clip-rule="evenodd" d="M11.1169 7.49341C5.77689 4.72153 -1.34189 7.9363 1.62775 15.264C4.80874 23.1109 16.5698 23.2079 23.2119 23.0523C22.5471 23.0159 20.4063 15.8201 19.6734 14.7328C17.512 11.5252 14.3998 9.20058 11.1169 7.49341ZM72.6432 148.18C73.9905 149.386 72.7529 148.293 72.6432 148.18V148.18ZM5.97272 42.9851C2.84779 45.4857 2.69874 49.9008 5.25141 52.8892C8.29104 56.4469 13.8413 56.3173 17.9844 55.9707C19.8585 55.8136 29.8655 54.9748 27.4935 53.2606C27.676 53.3327 28.057 53.5078 28.4648 53.7458C28.6843 54.5852 28.9147 55.4217 29.1549 56.2544C29.096 56.2904 29.0459 56.3291 28.983 56.3649C29.0511 56.3337 29.0989 56.2999 29.1589 56.2682C31.5654 64.5913 34.9908 72.5163 39.4761 79.9304C37.798 79.2387 36.0599 78.715 34.297 78.4819C29.0764 77.7908 18.094 82.0377 23.9336 89.3141C29.533 96.2896 38.2501 88.806 44.6049 87.7739C50.7688 96.7793 57.5647 105.41 64.6869 113.752C64.2505 113.895 63.8675 114.193 63.6479 114.657C60.7907 113.139 57.8134 110.969 55.1691 110.381C51.3533 109.534 43.5289 109.021 40.6449 112.596C37.0977 116.992 40.9001 120.563 45.0909 121.407C51.1677 122.629 59.1225 119.521 64.9697 117.421C65.6385 117.545 66.3687 117.34 66.8049 116.78C66.9341 116.736 67.0633 116.692 67.189 116.65C74.4015 124.951 81.8898 132.979 89.3326 140.83C89.2533 140.825 89.1741 140.82 89.0915 140.816C87.15 139.483 85.0675 138.389 82.8103 137.816C77.5885 136.484 71.4447 136.478 67.2072 140.433C62.9862 144.371 61.4909 151.258 65.8578 155.681C74.5985 164.533 87.4769 144.35 91.8859 143.507C99.4494 151.402 107.447 158.778 115.57 166.006C114.648 165.712 113.702 165.496 112.724 165.398C104.758 164.6 86.0612 174.823 95.8371 184.881C104.356 193.646 114.216 176.776 121.081 170.876C128.736 177.613 136.433 184.303 143.913 191.254C139.833 190.12 135.891 189.953 131.517 191.336C126.991 192.77 119.689 196.347 122.55 202.743C125.459 209.248 134.229 206.288 138.796 204.223C141.287 203.096 146.282 199.295 150.667 197.694C162.603 209.491 172.943 222.485 180.77 237.791C185.657 247.348 189.365 257.559 191.975 268.054C193.641 274.752 196.924 286.002 196.267 294.72C199.399 277.269 193.735 256.31 187.634 240.712C182.024 226.369 173.628 213.777 163.794 202.443C166.261 194.673 187.034 183.466 174.616 176.247C168.022 172.43 161.268 178.763 159.826 185.471C158.836 190.081 160.345 195.872 161.945 200.346C158.852 196.891 155.636 193.547 152.322 190.314C147.742 185.846 143.052 181.508 138.318 177.224C146.12 169.551 153.503 147.618 143.043 144.031C127.596 138.749 135.034 168.667 136.111 174.274C136.417 174.293 136.656 174.196 136.831 173.989C136.744 174.503 136.643 175.052 136.521 175.605C127.46 167.449 118.264 159.453 109.371 151.102C110.172 150.482 111.446 148.113 112.447 146.852C114.706 144.01 116.868 141.041 118.447 137.716C120.943 132.462 123.35 124.081 116.735 120.99C109.541 117.623 106.122 127.102 106.072 132.757C106.038 136.668 107.055 140.383 107.585 144.216C107.751 145.412 107.113 150.801 108.669 148.483C108.595 149.337 108.585 149.956 108.621 150.395C107.025 148.889 105.44 147.365 103.866 145.831C103.939 145.637 103.993 145.426 104.005 145.181C104.09 143.496 102.469 142.846 101.333 143.34C99.2556 141.274 97.1987 139.181 95.1785 137.047C90.8967 132.526 86.5528 127.876 82.239 123.127C83.1749 122.285 82.8027 121.12 83.678 120.226C84.5519 119.335 86.273 118.841 87.3006 118.013C89.8851 115.929 92.0283 112.893 93.5783 109.905C96.1373 104.967 99.4444 94.6096 91.9688 92.2563C84.2634 89.8269 80.3523 99.7972 79.8568 106.031C79.7604 107.238 80.6241 118.12 81.2854 122.071C73.3033 113.245 65.4525 104.088 58.3398 94.7711C60.4964 94.7502 66.6106 90.1248 67.8467 88.8627C70.8627 85.7843 75.657 78.982 70.3695 75.3824C65.6681 72.1897 59.8731 76.814 57.8627 81.3082C57.5322 82.0482 56.367 88.9361 56.2761 92.0265C53.3322 88.0757 50.524 84.1016 47.9113 80.1148C46.1689 77.4642 44.5407 74.7435 43.0173 71.965C43.384 71.7474 43.729 71.368 44.0549 70.8962C51.896 69.5031 61.8929 56.6962 52.6827 52.2403C48.2977 50.1215 43.5422 54.4951 41.3941 58.0759C40.954 58.8085 40.2412 62.4916 39.6611 65.3967C35.2783 56.192 31.9291 46.4472 29.38 36.4558C30.0626 36.2784 30.6407 35.7326 30.7169 34.7937C34.5238 32.5218 37.53 30.6301 40.1875 26.2613C41.8385 23.5477 44.8117 17.348 39.9606 15.8419C33.6477 13.8821 29.6822 23.9759 29.1657 28.9476C29.1056 29.5247 29.1078 31.2031 29.1286 32.7413C28.9094 32.71 28.6879 32.7135 28.4706 32.7537C27.0207 26.5669 25.8634 20.3005 24.943 14.0235C28.3886 12.8626 28.9845 -6.08039 26.6903 -8.77765C21.5623 -14.8172 17.9445 -6.09282 18.2182 -1.48183C18.5416 3.95499 20.8951 8.90066 23.6975 13.2899C23.9982 13.7547 23.9124 13.7321 23.9903 13.0846C24.0334 13.4047 24.1357 13.6409 24.2874 13.812C24.1427 16.6738 23.8609 19.6038 23.9962 22.1363C24.3843 29.3885 25.1913 36.6829 26.363 43.8418C26.648 45.5828 26.9744 47.3098 27.3403 49.0217C24.5709 46.5518 20.8368 44.3574 19.3757 43.6711C15.5836 41.8919 9.73935 39.9707 5.97272 42.9851ZM196.712 294.745C196.536 297.274 196.1 299.589 195.286 301.499C195.896 299.325 196.364 297.065 196.712 294.745Z" fill="#F2F2F2"/>
<g opacity="0.7">
<path opacity="0.7" fill-rule="evenodd" clip-rule="evenodd" d="M114.991 178.783C129.822 177.977 148.163 187.039 149.746 203.915C150.895 216.177 150.539 228.403 152.318 240.646C153.74 250.431 156.748 259.825 160.851 268.738C164.796 277.309 172.98 284.605 175.108 293.761C176.465 299.595 175.705 307.802 173.834 313.509C171.559 320.448 172.768 319.899 177.302 325.721C186.185 337.131 194.184 348.831 199.84 362.458C207.988 382.085 213.33 405.028 210.306 426.513C209.921 429.241 209.465 439.032 205.876 439.716C201.868 440.481 203.742 434.882 203.956 433.073C205.32 421.532 206.532 411.443 204.887 399.722C198.539 354.496 167.545 324.698 147.365 286.314C146.255 284.335 143.913 279.621 142.285 276.512C139.714 271.602 137.129 262.261 133.649 258.62C127.094 251.762 133.12 265.549 134.397 268.181C136.012 271.511 137.789 275.049 139.444 277.967C147.015 291.489 155.467 306.251 163.287 320.19C129.466 328.257 105.648 285.694 96.5717 257.711C89.0939 234.657 80.147 180.755 114.991 178.783Z" fill="#69A1AC"/>
<path opacity="0.7" fill-rule="evenodd" clip-rule="evenodd" d="M313.768 135.97C288.975 138.029 273.059 155.154 265.65 179.107C261.657 192.016 261.199 205.277 258.98 218.542C255.642 238.5 248.459 253.625 234.422 267.844C230.074 272.248 226.871 276.769 224.593 281.606C220.072 286.436 216.136 291.902 213.245 298.584C209.551 307.117 208.506 317.356 212.77 325.863C213.917 328.15 216.777 332.742 219.742 334.828C208.643 359.572 202.54 386.673 203.228 413.739C203.644 430.078 204.406 446.423 205.295 462.742C205.534 467.123 206.897 474.359 208.944 467.01C210.818 460.289 208.468 449.737 208.251 442.715C207.193 408.509 206.289 377.406 219.74 345.447C221.151 342.098 222.646 338.775 224.204 335.479C224.295 335.423 224.38 335.356 224.466 335.291C224.525 335.339 224.579 335.391 224.639 335.437C224.738 335.252 224.874 335.031 225.033 334.784C225.48 334.301 225.87 333.691 226.241 333.011C227.434 331.28 228.784 329.246 228.792 328.133C228.792 328.124 228.787 328.111 228.787 328.102C237.114 313.873 246.652 300.427 256.394 287.245C256.321 287.341 266.962 272.175 265.316 280.562C264.523 284.604 256.697 292.301 253.536 296.582C246.543 306.106 238.332 318.174 231.509 329.844C230.591 330.396 229.293 333.108 228.355 335.128C227.837 336.152 227.354 337.184 226.879 338.083C251.056 346.445 269.864 329.601 282.689 310.009C282.704 309.986 282.718 309.962 282.733 309.939C286.636 304.526 290.633 299.15 295.628 294.871C303.961 287.73 312.884 286.471 322.709 282.956C349.501 273.374 360.893 237.025 364.51 210.055C368.592 179.627 348.626 132.969 313.768 135.97Z" fill="#89C5CC"/>
<path opacity="0.7" fill-rule="evenodd" clip-rule="evenodd" d="M264.794 50.7609C239.348 78.4838 227.055 116.936 217.321 153.085C206.449 193.459 199.268 234.457 198.993 276.434C198.812 304.013 198.095 331.764 199.633 359.312C200.179 369.095 201.11 378.895 202.592 388.574C202.714 389.369 206.028 410.979 209.199 405.943C211.002 403.08 205.802 383.526 205.409 380.269C203.198 361.926 202.684 343.448 202.792 324.972C202.969 294.552 202.113 264.288 205.058 233.98C205.497 229.455 205.845 224.702 206.871 220.275C207.961 215.569 206.573 217.624 210.124 215.76C213.575 213.949 217.838 214.208 221.419 211.935C235.619 202.921 242.884 179.767 248.538 164.574C255.005 147.201 258.935 128.675 262.074 110.392C264.379 96.9586 266.027 83.6073 266.96 70.0013C267.254 65.7132 267.271 61.229 268.076 57.0126C268.293 55.8752 269.381 53.8632 269.342 52.856C269.258 50.7243 268.029 49.4706 267.928 47.6794C266.863 48.6829 265.817 49.7108 264.794 50.7609Z" fill="#89C5CC"/>
<path opacity="0.7" fill-rule="evenodd" clip-rule="evenodd" d="M126.048 420.124C126.048 465.971 161.552 503.137 205.348 503.137C249.145 503.137 284.649 465.971 284.649 420.124" fill="#89C5CC"/>
<path opacity="0.7" fill-rule="evenodd" clip-rule="evenodd" d="M211.711 420.388H207.521C207.812 414.885 208.196 409.391 209.075 403.949C212.436 383.136 222.946 352.566 245.998 349.188C246.849 349.062 249.977 349.041 253.766 349.273C255.562 348.223 257.574 347.588 259.694 347.442C279.32 345.927 301.238 362.502 310.705 379.751C318.337 393.658 317.051 411.919 312.337 426.694C309.181 436.586 302.291 450.689 290.803 450.826C276.429 450.998 275.736 432.401 275.458 421.529C275.088 407.075 273.343 394.484 262.463 384.632C259.928 382.337 257.156 380.318 254.595 378.054C250.584 374.512 246.152 370.885 245.635 365.024C244.922 356.938 249.282 355.483 255.939 356.985C257.074 357.241 268.505 362.61 266.813 358.366C266.296 357.07 264.408 356.042 262.026 355.273C255.862 354.571 248.511 353.757 246.397 354.243C223.589 359.481 214.709 392.553 212.351 413.566C212.096 415.834 211.891 418.109 211.711 420.388V420.388Z" fill="#69A1AC"/>
</g>
</svg>
