<svg width="921" height="594" viewBox="0 0 921 594" fill="none" xmlns="http://www.w3.org/2000/svg">
<rect width="921" height="594" fill="#E5E5E5"/>
<g id="Frame 1">
<rect width="921" height="594" fill="white"/>
<g id="humaaans/sitting-1">
<g id="A-Human/Sitting">
<g id="Head/Front/Airy">
<g id="Head">
<path id="Vector" fill-rule="evenodd" clip-rule="evenodd" d="M473.372 129.326C480.485 121.169 485.299 111.172 484.495 99.9705C482.177 67.6953 436.19 74.7954 427.245 91.0852C418.299 107.375 419.362 148.695 430.923 151.607C435.534 152.768 445.356 149.924 455.352 144.037L449.078 187.405H486.126L473.372 129.326Z" fill="#B28B67"/>
</g>
<path id="hair" fill-rule="evenodd" clip-rule="evenodd" d="M448.361 72.3106C453.244 71.5283 466.392 70.9905 468.816 70.9908C470.366 70.9908 472.045 71.3367 472.963 69.9467C473.714 68.8085 473.439 66.8835 473.663 65.5626C473.924 64.0282 474.293 62.5136 474.668 61.0028C475.732 56.7037 477.342 52.6137 479.595 48.7737C483.822 41.5694 490.015 35.9262 497.832 32.6425C506.465 29.0167 516.234 28.1865 525.52 28.9219C535.458 29.7088 544.453 32.9137 553.836 35.9297C562.777 38.8037 572.141 39.935 581.492 38.5315C590.914 37.1176 598.033 32.1286 605.98 27.3934C614.116 22.5458 623.413 19.3752 633.031 20.1041C642.009 20.7846 650.283 24.4062 657.707 29.2442C664.653 33.7706 670.384 39.2166 673.619 46.8813C677.1 55.1263 677.097 64.1765 671.373 71.4631C663.076 82.0251 647.673 84.7564 634.859 84.4848C627.447 84.3282 620.168 83.0063 613.17 80.6018C603.837 77.3948 595.773 71.9592 587.042 67.5491C582.944 65.4796 578.709 63.7799 574.27 62.5556C569.962 61.367 565.719 60.8219 561.819 63.3643C557.693 66.0539 553.995 68.696 549.275 70.3797C544.747 71.995 539.95 72.8985 535.126 72.862C525.739 72.7912 516.486 69.9339 507.37 68.0199C499.935 66.4595 491.981 64.9042 484.402 66.4043C481.239 67.0303 476.619 68.3227 475.477 71.5339C494.703 74.9381 502.254 98.1678 496.834 115.221C493.908 124.425 476.324 135.184 469.487 130.345C465.156 127.28 467.785 123.255 469.487 120.599C472.746 115.511 473.861 108.976 467.831 105.434C462.629 102.379 457.16 109.634 457.056 109.626C455.626 109.516 443.273 102.69 434.761 92.7293C426.365 93.2156 425.091 87.8066 427.096 83.383C429.101 78.9594 441.615 73.3923 448.361 72.3106Z" fill="#191847"/>
</g>
<g id="Bottom/Sitting/Sweat-Pants">
<g id="Objects/Seat/Ball">
<path id="Ballsy-Ball" d="M501.563 575C435.916 575 382.699 525.371 382.699 464.151C382.699 402.93 435.916 353.302 501.563 353.302C567.21 353.302 620.427 402.93 620.427 464.151C620.427 525.371 567.21 575 501.563 575Z" fill="#C5CFD6"/>
</g>
<path id="Skin" fill-rule="evenodd" clip-rule="evenodd" d="M276.942 557.897C296.721 515.129 311.025 477.887 316.767 458.239C326.597 424.596 334.076 394.992 335.966 383.936C340.474 357.573 301.292 356.038 296.113 369.14C288.275 388.971 274.59 454.126 258.147 552.54L276.942 557.897ZM506.367 423.677C488.219 416.669 424.669 394.738 394.019 388.534C385.211 386.751 376.674 385.095 368.648 383.598C344.792 379.148 332.433 421.195 355.409 424.425C412.629 432.471 493.748 440.779 500.69 441.712C510.419 443.019 517.772 428.082 506.367 423.677Z" fill="#B28B67"/>
<path id="Leg-Back" fill-rule="evenodd" clip-rule="evenodd" d="M354.006 372.027L452.165 323.209V312.582H440.491C345.527 336.223 297.001 351.374 294.911 358.034C294.889 358.106 294.868 358.177 294.85 358.249C294.802 358.311 294.755 358.372 294.709 358.434C275.889 383.721 264.618 507.174 260.918 516.418L296.981 521.674C310.777 471.697 354.913 436.881 353.74 377.023C354.057 375.268 354.137 373.602 354.006 372.027Z" fill="#1F28CF"/>
<path id="Leg-Front" fill-rule="evenodd" clip-rule="evenodd" d="M444.009 401.02C452.991 399.264 461.262 397.696 468.339 396.483C514.053 388.65 527.383 364.743 519.501 312.582H435.274C421.516 316.443 350.013 345.738 312.914 361.319C288.36 371.632 296.1 408.808 310.005 418.483C310.081 419.077 310.331 419.48 310.777 419.66C385.575 449.948 444.748 434.056 464.515 439.134L473.658 410.956L444.009 401.02Z" fill="#2B44FF"/>
<g id="Accessories/Shoe/Flat-Sneaker">
<path id="shoe" fill-rule="evenodd" clip-rule="evenodd" d="M500.162 419.198C505.062 419.656 508.541 420.376 510.599 421.356C513.101 422.548 516.548 424.695 520.942 427.797C519.526 430.632 506.804 456.117 482.774 504.25C475.059 503.034 472.002 500.157 473.603 495.621C475.204 491.085 476.495 487.299 477.477 484.262L479.002 441C479.031 440.168 479.746 439.516 480.598 439.545C480.612 439.545 480.627 439.546 480.641 439.547L487.453 439.965C491.324 436.904 493.878 434.135 495.114 431.658C496.119 429.645 496.675 426.469 496.781 422.129L496.781 422.129C496.822 420.463 498.237 419.146 499.942 419.186C500.015 419.187 500.089 419.192 500.162 419.198Z" fill="#E4E4E4"/>
</g>
<g id="Accessories/Shoe/Flat-Sneaker_2">
<path id="shoe_2" fill-rule="evenodd" clip-rule="evenodd" d="M285.943 549.968C287.67 554.472 288.534 557.842 288.534 560.078C288.534 562.797 288.07 566.766 287.143 571.984C283.913 571.984 254.891 571.984 200.076 571.984C197.813 564.676 199.119 560.731 203.994 560.148C208.869 559.565 212.918 559.039 216.143 558.57L256.611 540.944C257.389 540.605 258.302 540.947 258.649 541.708C258.655 541.721 258.661 541.734 258.666 541.747L261.267 547.912C265.78 549.969 269.447 550.997 272.269 550.997C274.561 550.997 277.727 550.093 281.766 548.284L281.766 548.284C283.316 547.59 285.148 548.254 285.859 549.769C285.889 549.834 285.918 549.9 285.943 549.968Z" fill="#E4E4E4"/>
</g>
</g>
<g id="Body/Jacket-2">
<path id="Skin_2" fill-rule="evenodd" clip-rule="evenodd" d="M356.456 271.284L300.521 247.285C290.723 237.746 281.261 230.495 272.136 225.534C269.407 224.685 264.746 224.429 269.719 231.526C274.693 238.623 279.598 246.307 277.61 248.795C275.623 251.282 269.866 248.537 267.592 252.582C266.075 255.278 275.78 258.504 296.704 262.259L338.596 293.638L356.456 271.284ZM582.594 277.894L550.961 284.026C582.773 341.947 599.834 372.645 602.142 376.12C607.336 383.94 602.49 398.271 600.7 405.817C611.93 408.371 607.501 391.858 621.713 395.305C634.685 398.453 645.683 406.529 657.778 395.637C659.266 394.297 660.354 390.112 655.284 387.965C642.652 382.616 623.99 372.6 620.964 368.712C616.837 363.41 604.047 333.137 582.594 277.894Z" fill="#B28B67"/>
<path id="Coat-Back" fill-rule="evenodd" clip-rule="evenodd" d="M464.985 162.267L451.637 160.03C422.563 187.584 410.698 253.782 391.322 262.545C373.003 270.829 347.034 262.813 316.166 251.988L306.713 272.622C334.76 302.267 394.509 327.311 418.729 313.014C457.45 290.155 466.389 208.51 464.985 162.267Z" fill="#DB2721"/>
<path id="Shirt" fill-rule="evenodd" clip-rule="evenodd" d="M523.175 326.155C469.652 326.155 430.282 326.155 405.065 326.155C399.668 326.155 400.685 318.541 401.465 314.699C410.469 270.359 445.618 222.562 445.618 159.445L479.686 154.226C507.865 198.503 517.61 253.016 523.175 326.155Z" fill="#DDE3E9"/>
<path id="Coat-Front" fill-rule="evenodd" clip-rule="evenodd" d="M534.955 281.262C559.033 323.693 579.271 354.242 595.67 372.908L620.427 368.17C604.48 271.546 558.299 200.231 481.884 154.226H475.735L468.395 154.226C437.81 256.082 429.379 323.948 443.1 357.826H549.417C547.735 333.037 542.342 306.822 534.955 281.262H534.955Z" fill="#FF4133"/>
</g>
</g>
</g>
</g>
</svg>
